<svg width="286" height="54" viewBox="0 0 286 54" fill="none" xmlns="http://www.w3.org/2000/svg">
<path d="M95.1764 36.2154C97.3441 38.4516 100.16 39.5696 104.252 39.5696C112.903 39.5696 121.614 32.0887 121.614 18.4483C121.614 6.29177 113.531 0.396484 106.258 0.396484C99.2687 0.396484 96.5337 4.40121 95.1562 6.37308V3.24248C95.1562 2.49033 94.5079 1.14864 93.0493 1.14864C89.2001 1.14864 84.0342 1.14864 84.0342 1.14864V51.5635C84.0342 52.9662 85.1889 53.6777 86.1208 53.6777H95.1359V36.2154H95.1764ZM95.1764 15.6429C95.8247 13.7524 98.1342 9.50368 103.098 9.50368C106.197 9.50368 110.431 10.7031 110.431 18.7329C110.431 27.5555 105.306 30.869 101.051 30.869C97.8303 30.869 95.9057 29.507 95.1764 28.8362V15.6429V15.6429Z" fill="#8DC640"/>
<path d="M145.317 9.50492C140.009 9.50492 137.133 13.5097 137.133 20.1978C137.133 26.8859 139.948 30.8906 145.317 30.8906C150.686 30.8906 153.501 26.9875 153.501 20.1978C153.501 13.408 150.625 9.50492 145.317 9.50492ZM164.644 19.9335C164.644 31.5208 157.087 39.5506 145.398 39.5506C133.709 39.5506 126.152 31.3581 126.152 19.9335C126.152 8.50882 133.668 0.316406 145.398 0.316406C157.128 0.316406 164.644 8.34619 164.644 19.9335Z" fill="#8DC640"/>
<path d="M188.448 9.4639C183.14 9.4639 180.264 13.4686 180.264 20.1567C180.264 26.8448 183.08 30.8496 188.448 30.8496C193.817 30.8496 196.633 26.9465 196.633 20.1567C196.653 13.367 193.776 9.4639 188.448 9.4639ZM207.795 19.8925C207.795 31.4797 200.239 39.5095 188.549 39.5095C176.86 39.5095 169.304 31.3171 169.304 19.8925C169.304 8.4678 176.82 0.275391 188.549 0.275391C200.279 0.275391 207.795 8.30518 207.795 19.8925Z" fill="#8DC640"/>
<path d="M20.6467 39.4681C34.1592 39.4681 39.163 28.7956 33.9971 28.3687C32.5992 28.2467 31.3837 30.6861 23.8475 30.6861C15.9467 30.6861 12.7053 26.6814 12.2191 23.6118H33.207C35.9217 23.6118 37.4005 21.1927 37.7855 19.6681C39.4467 13.0206 35.9622 0.294922 20.6467 0.294922C6.06047 0.294922 0.894531 11.9229 0.894531 20.2982C0.894531 28.7549 6.76952 39.4681 20.6467 39.4681ZM20.9303 9.15818C28.8311 9.15818 28.7096 16.5171 27.6156 16.5171H12.1786C12.1786 14.2607 15.1566 9.15818 20.9303 9.15818Z" fill="#8DC640"/>
<path d="M44.5923 26.6405V1.14844H62.7642C70.341 1.14844 76.4185 5.01087 76.4185 11.6786C76.4185 16.029 73.8052 18.1431 72.144 18.9766C74.0078 19.6271 78.1608 21.8836 78.1608 27.4739C78.1608 34.7109 72.0427 38.6343 63.8987 38.6343H62.2983H55.775C49.6569 38.6343 44.5923 36.3778 44.5923 26.6405ZM67.2617 27.3316C67.2617 25.1565 65.9043 23.6115 63.5341 23.6115H55.7143V27.23C55.7143 28.8359 56.869 30.7672 59.1177 30.7672H63.838C65.3979 30.7875 67.2617 29.4051 67.2617 27.3316ZM65.9854 12.878C66.0056 11.7193 65.1345 9.40184 62.1362 9.44249H55.7143V16.5168H62.1362C64.3242 16.5168 65.9854 15.1752 65.9854 12.878Z" fill="#8DC640"/>
<path d="M262.352 36.7054V9.4448H252.891C251.716 9.4448 250.805 8.50969 250.805 7.47293V1.19141H282.915C283.725 1.19141 285.001 1.80126 285.001 3.28525V9.42448H273.454V38.657H264.439C263.041 38.6773 262.352 37.4576 262.352 36.7054Z" fill="#8DC640"/>
<path d="M213.223 36.6444V1.19141H235.386C241.504 1.19141 246.569 3.44788 246.569 13.1853V38.6773H237.513C236.601 38.6773 235.447 37.9658 235.447 36.6241V12.982C235.426 11.3354 234.17 9.44481 231.901 9.44481H224.284V38.6773H215.35C213.871 38.6773 213.223 37.3966 213.223 36.6444Z" fill="#8DC640"/>
</svg>
