<svg width="208" height="72" viewBox="0 0 208 72" fill="none" xmlns="http://www.w3.org/2000/svg">
<path d="M24 32.1818C24 23.0173 24 18.4351 25.7835 14.9347C27.3524 11.8557 29.8557 9.35237 32.9347 7.78353C36.4351 6 41.0173 6 50.1818 6H57.8182C66.9827 6 71.5649 6 75.0653 7.78353C78.1443 9.35237 80.6476 11.8557 82.2165 14.9347C84 18.4351 84 23.0173 84 32.1818V39.8182C84 48.9827 84 53.5649 82.2165 57.0653C80.6476 60.1443 78.1443 62.6476 75.0653 64.2165C71.5649 66 66.9827 66 57.8182 66H50.1818C41.0173 66 36.4351 66 32.9347 64.2165C29.8557 62.6476 27.3524 60.1443 25.7835 57.0653C24 53.5649 24 48.9827 24 39.8182V32.1818Z" fill="#D2E3D6"/>
<path d="M50.1818 6C41.0173 6 36.4351 6 32.9347 7.78353C29.8557 9.35237 27.3524 11.8557 25.7835 14.9347C24 18.4351 24 23.0173 24 32.1818V39.8182C24 48.9827 24 53.5649 25.7835 57.0653C27.3524 60.1443 29.8557 62.6476 32.9347 64.2165C36.4351 66 41.0173 66 50.1818 66H57.8182C66.9827 66 71.5649 66 75.0653 64.2165C78.1443 62.6476 80.6476 60.1443 82.2165 57.0653C84 53.5649 84 48.9827 84 39.8182V32.1818C84 29.8403 84 27.798 83.9702 25.9963C83.957 25.1962 83.9504 24.7962 83.848 24.389C83.7599 24.0385 83.6058 23.6737 83.416 23.3662C83.1954 23.0089 82.9 22.7119 82.3091 22.118L67.9786 7.71457C67.3491 7.08187 67.0343 6.7655 66.6666 6.53924C66.3405 6.33863 65.9848 6.19077 65.6127 6.10112C65.1929 6 64.7466 6 63.8541 6H50.1818Z" fill="#2EC86B"/>
<path d="M37.9004 32.9C35.8004 32.9 34.0004 34.6 34.0004 36.6V49.8C34.0004 51.9 35.7004 53.5 37.9004 53.5C40.0004 53.5 41.8004 51.8 41.8004 49.8V36.7C41.7004 34.6 40.0004 32.9 37.9004 32.9ZM59.2004 20C52.2004 20 46.4004 25.6 46.4004 32.6V49.9C46.4004 52 48.1004 53.6 50.2004 53.6C52.3004 53.6 54.0004 51.9 54.0004 49.9V32.6C54.0004 29.8 56.3004 27.5 59.2004 27.5C62.1004 27.5 64.4004 29.8 64.4004 32.6V49.9C64.4004 52 66.1004 53.6 68.2004 53.6C70.3004 53.6 72.0004 51.9 72.0004 49.9V32.6C72.0004 25.6 66.2004 20 59.2004 20ZM37.9004 20C35.1004 20 32.9004 22.2 32.9004 25C32.9004 27.8 35.1004 30 37.9004 30C40.7004 30 42.9004 27.8 42.9004 25C42.9004 22.2 40.7004 20 37.9004 20Z" fill="white"/>
<path d="M113.999 20C115.999 20 117.699 21.6 117.799 23.6V23.8V50C117.799 52.1 116.099 53.7 113.999 53.7C112.799 53.7 111.699 53.1 110.999 52.2C109.199 53.1 107.199 53.7 104.999 53.7C97.9992 53.7 92.3992 48.2 92.1992 41.4V41.1V40C92.1992 39.9 92.1992 39.8 92.1992 39.7V39.6V39.5V32.7C92.1992 25.7 97.8992 20.1 104.999 20.1H105.099H113.999V20ZM104.999 27.4C102.199 27.4 99.8992 29.6 99.7992 32.3V32.5V39.3C99.7992 39.4 99.7992 39.5 99.7992 39.6V39.7V39.8V40.9C99.7992 43.7 102.099 46 104.999 46C107.799 46 110.099 43.8 110.199 41.1V40.9V34.2V29C110.199 28.1 109.499 27.4 108.599 27.4H105.499C105.399 27.4 105.399 27.4 105.299 27.4C105.099 27.4 105.099 27.4 104.999 27.4Z" fill="#2EC86B"/>
<path d="M126.2 20C124.2 20 122.5 21.6 122.4 23.6V23.8V59.7C122.4 61.8 124.1 63.4 126.2 63.4C128.2 63.4 129.9 61.8 130 59.8V59.6V53.6H135.1H135.2C142.2 53.6 147.8 48.1 148 41.3V41V39.9C148 39.8 148 39.7 148 39.6V39.5V39.4V32.6C148 25.6 142.3 20 135.2 20H135.1H126.2V20ZM135.2 27.4C138 27.4 140.3 29.6 140.4 32.3V32.5V39.3C140.4 39.4 140.4 39.5 140.4 39.6V39.7V39.8V40.9C140.4 43.7 138.1 46 135.2 46C135.1 46 135.1 46 135 46H134.9H131.7C130.8 46 130.1 45.3 130.1 44.4V39.2V34.2V29C130.1 28.1 130.8 27.4 131.7 27.4H134.8C134.9 27.4 134.9 27.4 135 27.4C135 27.4 135.1 27.4 135.2 27.4Z" fill="#2EC86B"/>
<path d="M156.4 20C154.4 20 152.7 21.6 152.6 23.6V23.8V59.7C152.6 61.8 154.3 63.4 156.4 63.4C158.4 63.4 160.1 61.8 160.2 59.8V59.6V53.6H165.3H165.4C172.4 53.6 178 48.1 178.2 41.3V41V39.9C178.2 39.8 178.2 39.7 178.2 39.6V39.5V39.4V32.6C178.2 25.6 172.5 20 165.4 20H165.3H156.4V20ZM165.3 27.4C168.1 27.4 170.4 29.6 170.5 32.3V32.5V39.3C170.5 39.4 170.5 39.5 170.5 39.6V39.7V39.8V40.9C170.5 43.7 168.2 46 165.3 46C165.2 46 165.2 46 165.1 46H165H161.8C160.9 46 160.2 45.3 160.2 44.4V39.2V34.2V29C160.2 28.1 160.9 27.4 161.8 27.4H164.9C165 27.4 165 27.4 165.1 27.4C165.2 27.4 165.3 27.4 165.3 27.4Z" fill="#2EC86B"/>
<mask id="mask0" mask-type="alpha" maskUnits="userSpaceOnUse" x="65" y="6" width="20" height="19">
<path d="M65.8184 6H67.6365C76.6739 6 84.0002 13.3263 84.0002 22.3636V24.1818H65.8184V6Z" fill="white"/>
</mask>
<g mask="url(#mask0)">
<path opacity="0.5" d="M65.8184 -1.27197C65.8184 -4.64956 65.8184 -6.33836 66.005 -7.75616C67.294 -17.5468 74.9981 -25.2509 84.7887 -26.5399C86.2065 -26.7266 87.8953 -26.7266 91.2729 -26.7266C94.6505 -26.7266 96.3393 -26.7266 97.7571 -26.5399C107.548 -25.2509 115.252 -17.5468 116.541 -7.75616C116.727 -6.33836 116.727 -4.64956 116.727 -1.27197C116.727 2.10563 116.727 3.79443 116.541 5.21223C115.252 15.0028 107.548 22.7069 97.7571 23.9959C96.3393 24.1825 94.6505 24.1825 91.2729 24.1825H86.182C80.7674 24.1825 78.06 24.1825 75.869 23.4706C71.4408 22.0318 67.9691 18.5601 66.5303 14.1319C65.8184 11.9409 65.8184 9.23358 65.8184 3.81894V-1.27197Z" fill="white"/>
</g>
</svg>
