<svg width="374" height="90" viewBox="0 0 374 90" fill="none" xmlns="http://www.w3.org/2000/svg">
<path d="M215.944 90C223.093 90 228.958 86.6559 233.072 80.4351L233.843 88.7133H247.882V0H232.713V32.0387C228.905 26.2782 223.249 23.2445 216.614 23.2445C201.958 23.2445 191.723 35.6408 191.723 57.086C191.723 78.2208 201.651 90 215.948 90H215.944ZM309.288 84.3929V72C304.556 75.1871 296.637 78.0151 289.231 78.0151C278.121 78.0151 273.905 72.7706 273.288 62.0724H309.902V54C309.902 31.6831 300.082 23.2445 284.91 23.2445C266.394 23.2445 257.604 37.3878 257.604 56.828C257.604 79.1449 268.556 90 287.996 90C297.666 90 304.814 87.4266 309.288 84.3929V84.3929ZM145.747 42.6323C148.575 39.1871 153 36.258 158.503 36.258C163.848 36.258 166.268 38.5699 166.268 43.4064V88.7133H181.437V41.8617C181.437 29.1096 176.346 23.5025 163.953 23.5025C154.9 23.5025 149.551 26.8466 146.465 29.8803H145.698L145.336 24.5312H130.519V88.7133H145.691V42.6358L145.747 42.6323ZM118.182 44.9477C118.182 29.3642 110.26 23.5025 94.1635 23.5025C84.1871 23.5025 76.1635 27.7218 71.5885 31.0101V44.1771C76.4215 40.2158 83.828 35.6408 92.4165 35.6408C99.6695 35.6408 103.01 38.2108 103.01 45.1011V49.1635H100.594C77.3491 49.1635 67.0101 56.6745 67.0101 70.0961C67.0101 82.4889 74.9291 89.6373 86.6559 89.6373C95.6036 89.6373 99.4115 86.7082 102.341 83.6222H102.958C103.062 85.2681 103.575 87.4266 104.091 88.7133H118.9C118.388 83.5002 118.13 78.2662 118.13 73.0287V44.9477H118.182ZM355.986 88.7133H373.111L352.179 55.6459L370.283 24.5312H355.111L344.155 43.919L331.915 24.5312H314.738L334.126 55.2867L313.968 88.7133H329.398L342.303 67.0101L355.986 88.7133ZM220.422 35.2294C228.599 35.2294 232.661 41.7606 232.661 56.5211C232.661 71.4351 228.337 77.9663 219.752 77.9663C211.47 77.9663 207.356 71.585 207.356 57.0337C207.408 41.8652 211.728 35.2294 220.422 35.2294ZM284.652 35.2294C292.163 35.2294 294.475 41.5025 294.475 49.5261V50.8129H273.288C273.647 40.5784 277.351 35.2259 284.656 35.2259L284.652 35.2294ZM103.01 73.3843C101.106 76.2123 97.5076 78.4754 92.1585 78.4754C85.7807 78.4754 82.5936 74.7722 82.5936 69.165C82.5936 61.7621 87.838 59.1922 100.848 59.1922H103.01V73.3843Z" fill="black"/>
<path d="M44.5362 73.6459V88.7133H29.1096V63.3068L0 0H16.0961L38.7757 49.5261C43.1484 58.9899 44.5362 62.2782 44.5362 73.6459V73.6459ZM73.5413 0L54.6172 42.8903H38.9326L57.8566 0H73.5413Z" fill="#FC3F1D"/>
</svg>
