<svg width="604" height="166" viewBox="0 0 604 166" fill="none" xmlns="http://www.w3.org/2000/svg">
<path fill-rule="evenodd" clip-rule="evenodd" d="M64.0441 29.6997L88.4209 5.35693L88.4602 39.807L64.083 64.1498L64.0441 29.6997Z" fill="#5E5E5E"/>
<path fill-rule="evenodd" clip-rule="evenodd" d="M36.2547 39.9483L36.1973 5.49829L60.6425 29.7727L60.6999 64.2227L36.2547 39.9483Z" fill="#5E5E5E"/>
<path fill-rule="evenodd" clip-rule="evenodd" d="M60.7514 106.734L36.4074 131.11L36.322 96.6598L60.6663 72.2841L60.7514 106.734Z" fill="#03F900" stroke="#FEFEFE" stroke-width="0.755906" stroke-miterlimit="22.9256"/>
<path fill-rule="evenodd" clip-rule="evenodd" d="M64.1299 106.681L64.1088 72.2314L88.5283 96.5315L88.5495 130.982L64.1299 106.681Z" fill="#03F900"/>
<path fill-rule="evenodd" clip-rule="evenodd" d="M24.4324 69.7227L58.8824 69.7998L34.5124 94.1498L0.0623779 94.0723L24.4324 69.7227Z" fill="#5E5E5E"/>
<path fill-rule="evenodd" clip-rule="evenodd" d="M24.3791 66.7931L0 42.4525L34.45 42.3618L58.8295 66.7024L24.3791 66.7931Z" fill="#5E5E5E"/>
<path fill-rule="evenodd" clip-rule="evenodd" d="M90.539 94.1701L66.2113 69.7778L100.661 69.7604L124.989 94.1523L90.539 94.1701Z" fill="#03F900"/>
<path fill-rule="evenodd" clip-rule="evenodd" d="M100.671 66.589L66.2203 66.5852L90.5382 42.1831L124.989 42.1869L100.671 66.589Z" fill="#09F900"/>
<path d="M187.274 40.9499H166.218V108.442C166.218 112.327 166.657 115.398 167.534 117.654C168.412 119.91 169.759 121.633 171.577 122.824C173.394 124.015 175.587 124.736 178.156 124.986C180.726 125.237 183.702 125.299 187.087 125.174V131.378C183.452 131.629 179.911 131.597 176.465 131.284C173.018 130.971 169.979 130.031 167.347 128.464C164.714 126.897 162.615 124.547 161.048 121.414C159.482 118.281 158.824 113.957 159.075 108.442V40.9499H141.214V34.7461H159.075V4.66601H166.218V34.7461H187.274V40.9499V40.9499ZM200.623 84.0021V85.1299C200.623 90.7701 201.374 96.1593 202.879 101.298C204.382 106.437 206.607 110.949 209.553 114.834C212.498 118.719 216.195 121.79 220.645 124.046C225.094 126.302 230.264 127.43 236.154 127.43C245.805 127.43 253.451 124.892 259.09 119.816C264.731 114.74 268.616 107.69 270.746 98.6659H277.891C275.76 109.946 271.154 118.594 264.073 124.61C256.991 130.626 247.623 133.634 235.966 133.634C228.822 133.634 222.587 132.349 217.26 129.78C211.934 127.211 207.484 123.701 203.912 119.252C200.34 114.803 197.677 109.539 195.922 103.46C194.168 97.3812 193.29 90.8328 193.29 83.8138C193.29 77.0458 194.199 70.5602 196.017 64.3561C197.834 58.152 200.56 52.7 204.195 48.0002C207.829 43.3 212.372 39.5401 217.824 36.7202C223.276 33.8999 229.7 32.4901 237.095 32.4901C243.863 32.4901 249.847 33.7434 255.049 36.25C260.25 38.7566 264.605 42.1722 268.114 46.4959C271.624 50.8201 274.287 55.8332 276.105 61.5362C277.922 67.2387 278.831 73.3487 278.831 79.8661C278.831 80.4928 278.799 81.2135 278.736 82.028C278.674 82.8429 278.643 83.5005 278.643 84.0021H200.623V84.0021ZM271.499 77.798C271.248 72.5338 270.37 67.5521 268.867 62.8522C267.363 58.152 265.138 54.0161 262.193 50.444C259.247 46.872 255.675 44.0207 251.477 41.8902C247.278 39.7593 242.484 38.6938 237.095 38.6938C231.329 38.6938 226.253 39.7907 221.867 41.9839C217.48 44.1772 213.783 47.0598 210.774 50.6319C207.766 54.2039 205.448 58.3712 203.819 63.1342C202.189 67.8968 201.187 72.7848 200.81 77.798H271.499V77.798ZM368.131 64.638C367.754 60.3766 366.658 56.6168 364.84 53.358C363.023 50.0993 360.673 47.4045 357.79 45.274C354.908 43.1435 351.555 41.5141 347.732 40.386C343.91 39.2581 339.805 38.6938 335.418 38.6938C329.402 38.6938 324.076 39.9161 319.439 42.36C314.801 44.8038 310.916 48.0625 307.782 52.1361C304.649 56.2093 302.268 60.8468 300.638 66.0482C299.009 71.2492 298.195 76.6074 298.195 82.1221C298.195 88.6395 298.946 94.6554 300.451 100.17C301.954 105.685 304.273 110.479 307.406 114.552C310.54 118.626 314.425 121.79 319.062 124.046C323.7 126.302 329.152 127.43 335.418 127.43C339.93 127.43 344.098 126.678 347.92 125.174C351.743 123.67 355.127 121.602 358.072 118.97C361.018 116.338 363.43 113.173 365.31 109.476C367.191 105.779 368.444 101.737 369.07 97.3502H376.215C375.462 103.116 373.896 108.254 371.514 112.766C369.133 117.278 366.125 121.069 362.49 124.14C358.856 127.211 354.72 129.561 350.083 131.19C345.445 132.82 340.557 133.634 335.418 133.634C327.523 133.634 320.786 132.224 315.208 129.404C309.631 126.584 305.056 122.793 301.484 118.03C297.912 113.267 295.281 107.784 293.588 101.58C291.896 95.3762 291.05 88.8901 291.05 82.1221C291.05 75.3541 292.022 68.9622 293.964 62.9459C295.907 56.9301 298.758 51.6659 302.518 47.1539C306.279 42.6419 310.916 39.0699 316.43 36.4379C321.945 33.8062 328.274 32.4901 335.418 32.4901C340.682 32.4901 345.602 33.1481 350.176 34.4642C354.751 35.7798 358.825 37.7539 362.397 40.386C365.968 43.018 368.882 46.3708 371.138 50.444C373.394 54.5172 374.773 59.2488 375.275 64.638H368.131V64.638ZM400.09 -2.85413V55.4262H400.466C401.72 51.7914 403.506 48.5641 405.824 45.7442C408.143 42.9239 410.838 40.5114 413.908 38.506C416.979 36.5006 420.331 34.9967 423.966 33.994C427.601 32.9913 431.298 32.4901 435.058 32.4901C440.698 32.4901 445.492 33.1795 449.44 34.5579C453.388 35.9367 456.616 37.7539 459.122 40.0099C461.629 42.2659 463.603 44.8038 465.044 47.6241C466.486 50.444 467.52 53.2953 468.146 56.178C468.773 59.0606 469.149 61.8495 469.274 64.5439C469.4 67.2387 469.462 69.5889 469.462 71.5939V131.378H462.318V70.2778C462.318 67.8967 462.13 64.8886 461.754 61.2539C461.378 57.6195 460.282 54.1415 458.464 50.8201C456.647 47.4986 453.89 44.6473 450.192 42.2659C446.495 39.8848 441.388 38.6938 434.87 38.6938C429.355 38.6938 424.468 39.6965 420.206 41.702C415.945 43.7074 412.31 46.4959 409.302 50.068C406.294 53.64 404.007 57.9014 402.44 62.8522C400.874 67.8026 400.09 73.2232 400.09 79.114V131.378H392.946V-2.85413H400.09V-2.85413Z" fill="#5E5E5E"/>
<path d="M492.21 16.5099V-2.85413H499.354V16.5099H492.21ZM492.21 131.378V34.7461H499.354V131.378H492.21ZM596.738 109.758H596.362C595.109 113.518 593.292 116.902 590.91 119.91C588.529 122.918 585.74 125.425 582.544 127.43C579.348 129.435 575.87 130.971 572.11 132.036C568.35 133.102 564.528 133.634 560.642 133.634C553.373 133.634 547.044 132.318 541.654 129.686C536.265 127.054 531.784 123.482 528.212 118.97C524.64 114.458 521.977 109.1 520.222 102.896C518.468 96.6922 517.59 90.018 517.59 82.8739C517.59 76.2314 518.405 69.8708 520.034 63.7922C521.664 57.7132 524.17 52.3553 527.554 47.7178C530.938 43.0807 535.262 39.3832 540.526 36.6261C545.79 33.8685 552.057 32.4901 559.326 32.4901C567.974 32.4901 575.306 34.4014 581.322 38.2241C587.338 42.0467 592.352 47.7806 596.362 55.4262H596.738V34.7461H603.882V165.97H596.738V109.758V109.758ZM560.642 127.43C566.784 127.43 572.141 126.177 576.716 123.67C581.291 121.164 585.02 117.811 587.902 113.612C590.785 109.413 592.947 104.651 594.388 99.3239C595.83 93.9974 596.55 88.5141 596.55 82.8739C596.55 77.3596 595.83 71.9386 594.388 66.6121C592.947 61.2852 590.753 56.554 587.808 52.4181C584.863 48.2821 581.165 44.9607 576.716 42.4541C572.267 39.9475 566.972 38.6938 560.83 38.6938C554.564 38.6938 549.174 39.9161 544.662 42.36C540.15 44.8038 536.422 48.0939 533.476 52.2299C530.531 56.3662 528.338 61.0974 526.896 66.4239C525.455 71.7507 524.734 77.2341 524.734 82.8739C524.734 88.7647 525.392 94.3735 526.708 99.7C528.024 105.027 530.155 109.758 533.1 113.894C536.046 118.03 539.774 121.32 544.286 123.764C548.798 126.208 554.25 127.43 560.642 127.43V127.43Z" fill="#03F900"/>
<path fill-rule="evenodd" clip-rule="evenodd" d="M491.737 -3H499.467V16.5292H491.737V-3Z" fill="#5E5E5E"/>
</svg>
